<svg width="100" height="100" viewBox="0 0 100 100" fill="none" xmlns="http://www.w3.org/2000/svg">
<g id="Frame 3">
<g id="Layer 3">
<g id="Group">
<path id="Vector" d="M22.7289 13.467H17.6191C13.4112 13.467 10 16.8901 10 21.1127V26.2404C10 30.463 13.4112 33.8861 17.6191 33.8861H22.7289C26.9368 33.8861 30.348 30.463 30.348 26.2404V21.1127C30.348 16.8901 26.9368 13.467 22.7289 13.467Z" stroke="#181B3F" stroke-width="3" stroke-linecap="round" stroke-linejoin="round"/>
<path id="Vector_2" d="M50.5892 41.4321H45.4793C41.2714 41.4321 37.8602 44.8552 37.8602 49.0778V54.2055C37.8602 58.4281 41.2714 61.8511 45.4793 61.8511H50.5892C54.7971 61.8511 58.2082 58.4281 58.2082 54.2055V49.0778C58.2082 44.8552 54.7971 41.4321 50.5892 41.4321Z" stroke="#181B3F" stroke-width="3" stroke-linecap="round" stroke-linejoin="round"/>
<path id="Vector_3" d="M78.686 69.5811H73.5761C69.3682 69.5811 65.9571 73.0041 65.9571 77.2267V82.3544C65.9571 86.577 69.3682 90.0001 73.5761 90.0001H78.686C82.8939 90.0001 86.3051 86.577 86.3051 82.3544V77.2267C86.3051 73.0041 82.8939 69.5811 78.686 69.5811Z" stroke="#181B3F" stroke-width="3" stroke-linecap="round" stroke-linejoin="round"/>
<g id="Group_2">
<path id="Vector_4" d="M41.0483 23.6841H69.8391C77.7479 23.6841 84.1544 30.1205 84.1544 38.0493C84.1544 45.9858 77.7403 52.4146 69.8391 52.4146H66.1172" stroke="#181B3F" stroke-width="3" stroke-linecap="round" stroke-linejoin="round"/>
<path id="Vector_5" d="M73.0346 45.3123L65.957 52.4145L72.9354 59.4173" stroke="#181B3F" stroke-width="3" stroke-linecap="round" stroke-linejoin="round"/>
</g>
<path id="Vector_6" d="M53.1137 80.3567H24.3153C16.4064 80.3567 10 73.9203 10 65.9915C10 58.055 16.414 51.6262 24.3153 51.6262H28.0371" stroke="#181B3F" stroke-width="3" stroke-linecap="round" stroke-linejoin="round"/>
<path id="Vector_7" d="M46.036 87.4055L53.1136 80.3032L46.1352 73.3081" stroke="#181B3F" stroke-width="3" stroke-linecap="round" stroke-linejoin="round"/>
</g>
</g>
</g>
</svg>
