<svg width="100" height="104" viewBox="0 0 100 104" fill="none" xmlns="http://www.w3.org/2000/svg">
<g id="Frame 3">
<g id="Layer 2">
<path id="Vector" d="M61.7669 82.6106C61.7669 89.1007 60.2779 95.2401 57.6228 100.71C57.2426 101.494 56.4528 102 55.5802 102H30.6127C29.8268 102 29.0921 101.596 28.6864 100.925C25.6945 95.9709 23.973 90.1623 23.973 83.952C23.973 74.7832 27.7271 66.4909 33.7819 60.5287C34.0714 60.2431 34.1798 59.8314 34.1049 59.4316C34.0636 59.211 34.0419 58.9825 34.0419 58.7501C34.0419 57.7377 34.4516 56.8198 35.1173 56.156C35.2552 56.0181 35.4049 55.8901 35.5645 55.7759C36.0313 55.4371 36.0313 54.726 35.5645 54.3872C34.6427 53.7215 34.0439 52.6362 34.0439 51.4111C34.0439 50.3987 34.4536 49.4808 35.1193 48.8151C35.2808 48.6535 35.4561 48.5078 35.6452 48.3778C36.0963 48.0686 36.0963 47.4107 35.6452 47.1014C34.6781 46.4416 34.0439 45.3287 34.0439 44.0701C34.0439 43.8633 34.0616 43.6624 34.0931 43.4654C34.2211 42.6933 34.5895 42.0059 35.1193 41.4761C35.5487 41.0467 36.0805 40.7237 36.6793 40.5503C37.0063 40.4518 37.3529 40.4006 37.7134 40.4006H47.3155C48.8715 40.4006 50.1341 41.6632 50.1341 43.2192V52.3467C50.1341 53.2626 50.4808 54.141 51.0933 54.8206C57.7291 62.1773 61.7709 71.9232 61.7709 82.6106H61.7669Z" stroke="#181B3F" stroke-width="3" stroke-miterlimit="10"/>
<path id="Vector_2" d="M47.1578 36.7114V40.4006H37.7093C37.3489 40.4006 37.0022 40.4518 36.6753 40.5503V36.7114C36.6753 35.9886 37.2622 35.4016 37.9851 35.4016H45.846C46.5709 35.4016 47.1578 35.9886 47.1578 36.7114Z" stroke="#181B3F" stroke-width="3" stroke-miterlimit="10"/>
<path id="Vector_3" d="M45.0876 35.4014C45.0876 35.4014 44.8001 31.8344 49.6238 31.8344H54.2761C54.7764 31.8344 55.1546 31.3833 55.0679 30.8909C54.2328 26.1479 47.272 22.5178 42.2907 22.5178H25.3555C25.0147 22.5178 24.739 22.7936 24.739 23.1343V29.2403C24.739 29.5771 25.0108 29.8509 25.3456 29.8529C26.2458 29.8588 27.6521 29.8745 28.7689 29.8844" stroke="#181B3F" stroke-width="3" stroke-miterlimit="10"/>
<path id="Vector_4" d="M35.3023 31.2319C36.9549 32.1951 38.2017 33.6369 38.5464 35.4017" stroke="#181B3F" stroke-width="3" stroke-miterlimit="10"/>
<path id="Vector_5" d="M35.3023 31.2318C32.468 35.9747 29.6415 39.4138 26.7441 41.608C25.6982 42.4018 24.6405 43.034 23.571 43.5048C22.6787 43.8967 21.8436 42.8587 22.4049 42.063C22.6039 41.7813 22.8028 41.4918 22.9998 41.1944C25.2964 37.7356 27.467 33.3137 28.7689 29.8845C29.4485 29.8904 30.0216 29.8963 30.3112 29.8963C32.0622 29.8963 33.8389 30.3769 35.3023 31.2318Z" stroke="#181B3F" stroke-width="3" stroke-miterlimit="10"/>
<path id="Vector_6" d="M35.3023 31.2312V31.2297" stroke="#181B3F" stroke-width="3" stroke-miterlimit="10"/>
<path id="Vector_7" d="M22.0741 23.5088H24.739V28.7067H22.0741C21.235 28.7067 20.5554 28.0252 20.5554 27.1881V25.0294C20.5554 24.1903 21.2369 23.5108 22.0741 23.5108V23.5088Z" stroke="#181B3F" stroke-width="3" stroke-miterlimit="10"/>
<path id="Vector_8" d="M40.9849 67.2334C34.7765 67.97 29.8386 72.7465 28.7454 78.9037C28.4519 80.5523 28.3042 82.2403 28.3042 83.9519C28.3042 87.8302 29.0881 91.6455 30.5949 95.1712C31.243 96.6878 32.7419 97.6667 34.3905 97.6667H51.4557C53.2067 97.6667 54.7726 96.5637 55.3537 94.9112C56.7344 90.9817 57.4336 86.8611 57.4336 82.6106C57.4336 81.8621 57.412 81.1156 57.3667 80.3711C56.9156 72.8588 50.6245 66.9478 43.1004 67.0876C42.9388 67.0916 42.7773 67.0955 42.6138 67.1014C42.0545 67.1251 41.5108 67.1684 40.9849 67.2314V67.2334Z" stroke="#181B3F" stroke-width="3" stroke-miterlimit="10"/>
<path id="Vector_9" d="M35.836 89.5518C32.5722 76.5776 47.7466 81.2831 52.1153 76.1167C52.7377 93.1307 37.8175 86.3669 35.836 89.5518Z" stroke="#181B3F" stroke-width="3" stroke-linecap="round" stroke-linejoin="round"/>
<path id="Vector_10" d="M46.3188 82.3765C39.2043 84.224 36.0785 86.8653 34.8455 92.3272" stroke="#181B3F" stroke-width="3" stroke-linecap="round" stroke-linejoin="round"/>
<g id="Group">
<path id="Vector_11" d="M46.9628 23.3867C48.0481 20.0678 50.9593 17.3103 54.8258 15.7917C56.8939 14.9782 59.2378 14.5193 61.7176 14.5193C64.1974 14.5193 66.5433 14.9782 68.6115 15.7917C73.5514 17.7338 76.9353 21.6968 76.9353 26.2723C76.9353 28.0903 76.3995 29.8118 75.4443 31.3462C73.9709 33.7176 73.2343 36.4732 73.2343 39.2662C73.2343 42.5772 74.3097 45.7996 76.2971 48.4488L76.3838 48.563C78.3712 51.2122 79.4446 54.4346 79.4446 57.7476V82.8018C79.4446 85.7523 77.0515 88.1455 74.1009 88.1455H61.4005" stroke="#181B3F" stroke-width="3" stroke-linecap="round" stroke-linejoin="round"/>
<path id="Vector_12" d="M50.8235 53.5088C53.2895 50.2057 57.2288 48.0667 61.6665 48.0667C69.1335 48.0667 75.1883 54.1214 75.1883 61.5884C75.1883 69.0554 69.1335 75.1102 61.6665 75.1102" stroke="#181B3F" stroke-width="3" stroke-linecap="round" stroke-linejoin="round"/>
<path id="Vector_13" d="M57.2033 21.6337C58.4068 20.6094 59.9648 19.9929 61.6685 19.9929C65.4759 19.9929 68.5604 23.0794 68.5604 26.8848C68.5604 30.6902 65.4739 33.7767 61.6685 33.7767" stroke="#181B3F" stroke-width="3" stroke-linecap="round" stroke-linejoin="round"/>
<path id="Vector_14" d="M68.6115 10.7197V15.7916C66.5433 14.9781 64.1994 14.5192 61.7176 14.5192C59.2359 14.5192 56.8939 14.9781 54.8258 15.7916V10.7197C54.8258 9.26019 56.0095 8.07642 57.4691 8.07642H65.9682C67.4277 8.07642 68.6115 9.26019 68.6115 10.7197Z" stroke="#181B3F" stroke-width="3" stroke-linecap="round" stroke-linejoin="round"/>
<path id="Vector_15" d="M66.2322 2L64.3394 3.89285V8.07643H59.0981V3.89285L57.2033 2H66.2322Z" stroke="#181B3F" stroke-width="3" stroke-linecap="round" stroke-linejoin="round"/>
</g>
</g>
</g>
</svg>
