<svg width="102" height="100" viewBox="0 0 102 100" fill="none" xmlns="http://www.w3.org/2000/svg">
<g id="Frame 3">
<g id="Layer 3">
<g id="Group">
<path id="Vector" d="M62.8659 24.1988L44.8712 11.8386C44.6139 11.6611 44.2945 11.5901 43.9839 11.6522C43.6734 11.7143 43.3983 11.8918 43.2209 12.1491L39.2013 18.0053L38.8642 17.7746C38.6068 17.5972 38.2963 17.5262 37.9857 17.5883H37.968C37.4888 17.677 37.2936 17.961 37.0541 18.3159L36.6015 18.9725C36.2111 19.5404 35.661 20.3478 34.9955 21.315C33.6645 23.2493 31.8988 25.8314 30.1242 28.4135C26.5838 33.5776 23.0434 38.7329 23.0434 38.7329C23.0168 38.7684 22.9991 38.8039 22.9813 38.8305C22.866 39.0434 22.8216 39.283 22.8394 39.5048C22.8394 39.5137 22.8394 39.5226 22.8394 39.5315C22.8394 39.5581 22.8394 39.5936 22.8482 39.6202L25.0221 50.747L3.07013 82.7611C2.69746 83.3024 2.83943 84.0389 3.38069 84.4115L3.45167 84.4648L0.701013 88.4754C-0.550092 90.2944 -0.0798186 92.7877 1.73916 94.03C2.64422 94.6511 3.72674 94.8463 4.72939 94.66C5.73205 94.4736 6.6726 93.9057 7.29372 92.9918L8.03018 91.9182C8.40285 91.3769 8.26088 90.6404 7.71963 90.2678C7.17837 89.8951 6.4419 90.0371 6.06923 90.5783L5.33277 91.652C4.827 92.3884 3.81547 92.5748 3.079 92.069C2.34253 91.5632 2.1562 90.5517 2.66197 89.8152L5.41262 85.8046L10.1154 89.0344C10.3727 89.2119 10.6921 89.2829 11.0027 89.2208C11.3132 89.1586 11.5883 88.9812 11.7658 88.7239L33.7355 56.7098L44.8979 54.7399C44.8979 54.7399 44.9245 54.7399 44.9334 54.7399C45.1907 54.6867 45.4125 54.5536 45.5811 54.3673C45.5811 54.3673 45.59 54.3584 45.5988 54.3495C45.6166 54.3318 45.6343 54.3052 45.6521 54.2874C45.6521 54.2785 45.6698 54.2697 45.6787 54.2608L59.8401 33.6131C60.2128 33.0719 60.0708 32.3354 59.5296 31.9627L59.1835 31.7231L60.7807 29.3984C60.7807 29.3984 60.8428 29.3274 60.8694 29.283C60.896 29.2476 60.9227 29.2032 60.9404 29.1588L63.1942 25.8669C63.5668 25.3256 63.4249 24.5892 62.8836 24.2165L62.8659 24.1988ZM33.3007 54.3673L27.3646 50.2945L25.7497 42.0071L41.6148 52.8943L33.3007 54.3673ZM10.4703 86.3902L5.69656 83.1161L26.6016 52.6548L31.3753 55.9289L10.4703 86.3902ZM44.3655 51.9094L25.6699 39.0789C29.8225 33.0275 36.3974 23.4446 38.4915 20.3922L56.8322 32.9742L57.1782 33.2138L44.3655 51.9005V51.9094ZM59.5385 26.9317L57.8703 25.787C57.3291 25.4144 56.5926 25.5563 56.2199 26.0976C55.8473 26.6389 55.9892 27.3753 56.5305 27.748L58.1986 28.8926L57.196 30.3567L41.1534 19.3541L42.1561 17.89L43.8331 19.0435C44.0993 19.2298 44.4276 19.2831 44.7204 19.2298C45.0132 19.1766 45.2972 19.008 45.4835 18.7329C45.8562 18.1917 45.7142 17.4552 45.1729 17.0825L43.4959 15.929L44.4986 14.4739L60.5322 25.4854L59.5385 26.9317Z" fill="#181B3F"/>
<path id="Vector_2" d="M40.4701 26.4524C40.8428 25.9111 40.7008 25.1747 40.1596 24.802C39.6183 24.4293 38.8818 24.5713 38.5092 25.1125C38.1365 25.6538 38.2785 26.3903 38.8197 26.7629C39.361 27.1356 40.0975 26.9936 40.4701 26.4524Z" fill="#181B3F"/>
<path id="Vector_3" d="M44.5785 29.2654C44.9511 28.7241 44.8092 27.9876 44.2679 27.615C43.7267 27.2423 42.9902 27.3843 42.6175 27.9255C42.2449 28.4668 42.3868 29.2033 42.9281 29.5759C43.4693 29.9486 44.2058 29.8066 44.5785 29.2654Z" fill="#181B3F"/>
<path id="Vector_4" d="M48.6866 32.0869C49.0593 31.5456 48.9173 30.8092 48.3761 30.4365C47.8348 30.0638 47.0983 30.2058 46.7257 30.7471C46.353 31.2883 46.495 32.0248 47.0362 32.3975C47.5775 32.7701 48.3139 32.6282 48.6866 32.0869Z" fill="#181B3F"/>
<path id="Vector_5" d="M50.834 33.5598C50.4613 34.1011 50.6033 34.8375 51.1446 35.2102C51.6858 35.5829 52.4223 35.4409 52.795 34.8996C53.1676 34.3584 53.0257 33.6219 52.4844 33.2493C51.9432 32.8766 51.2067 33.0186 50.834 33.5598Z" fill="#181B3F"/>
<path id="Vector_6" d="M37.6574 30.552C38.0301 30.0107 37.8881 29.2743 37.3469 28.9016C36.8056 28.5289 36.0691 28.6709 35.6965 29.2122C35.3238 29.7534 35.4658 30.4899 36.007 30.8625C36.5483 31.2352 37.2848 31.0932 37.6574 30.552Z" fill="#181B3F"/>
<path id="Vector_7" d="M41.7656 33.3735C42.1382 32.8323 41.9963 32.0958 41.455 31.7231C40.9137 31.3505 40.1773 31.4924 39.8046 32.0337C39.4319 32.5749 39.5739 33.3114 40.1152 33.6841C40.6564 34.0568 41.3929 33.9148 41.7656 33.3735Z" fill="#181B3F"/>
<path id="Vector_8" d="M45.8739 36.1865C46.2466 35.6453 46.1046 34.9088 45.5634 34.5361C45.0221 34.1634 44.2856 34.3054 43.913 34.8467C43.5403 35.3879 43.6823 36.1244 44.2235 36.4971C44.7648 36.8697 45.5012 36.7278 45.8739 36.1865Z" fill="#181B3F"/>
<path id="Vector_9" d="M48.0211 37.6594C47.6484 38.2007 47.7904 38.9371 48.3317 39.3098C48.8729 39.6825 49.6094 39.5405 49.9821 38.9993C50.3547 38.458 50.2128 37.7215 49.6715 37.3489C49.1302 36.9762 48.3938 37.1182 48.0211 37.6594Z" fill="#181B3F"/>
<path id="Vector_10" d="M34.8447 34.6511C35.2174 34.1099 35.0754 33.3734 34.5342 33.0007C33.9929 32.628 33.2564 32.77 32.8838 33.3113C32.5111 33.8525 32.6531 34.589 33.1943 34.9617C33.7356 35.3343 34.4721 35.1924 34.8447 34.6511Z" fill="#181B3F"/>
<path id="Vector_11" d="M38.9529 37.4729C39.3255 36.9316 39.1836 36.1952 38.6423 35.8225C38.101 35.4498 37.3646 35.5918 36.9919 36.1331C36.6192 36.6743 36.7612 37.4108 37.3025 37.7834C37.8437 38.1561 38.5802 38.0141 38.9529 37.4729Z" fill="#181B3F"/>
<path id="Vector_12" d="M43.0523 40.2856C43.425 39.7444 43.283 39.0079 42.7418 38.6352C42.2005 38.2626 41.4641 38.4045 41.0914 38.9458C40.7187 39.4871 40.8607 40.2235 41.4019 40.5962C41.9432 40.9689 42.6797 40.8269 43.0523 40.2856Z" fill="#181B3F"/>
<path id="Vector_13" d="M45.1995 41.7585C44.8268 42.2998 44.9688 43.0363 45.5101 43.4089C46.0513 43.7816 46.7878 43.6396 47.1605 43.0984C47.5331 42.5571 47.3912 41.8207 46.8499 41.448C46.3087 41.0753 45.5722 41.2173 45.1995 41.7585Z" fill="#181B3F"/>
<path id="Vector_14" d="M30.0709 37.4109C29.6982 37.9521 29.8402 38.6886 30.3814 39.0613C30.9227 39.4339 31.6591 39.292 32.0318 38.7507C32.4045 38.2095 32.2625 37.473 31.7212 37.1003C31.18 36.7277 30.4435 36.8696 30.0709 37.4109Z" fill="#181B3F"/>
<path id="Vector_15" d="M34.1792 40.2324C33.8065 40.7737 33.9485 41.5101 34.4898 41.8828C35.031 42.2555 35.7675 42.1135 36.1402 41.5723C36.5128 41.031 36.3709 40.2945 35.8296 39.9219C35.2883 39.5492 34.5519 39.6912 34.1792 40.2324Z" fill="#181B3F"/>
<path id="Vector_16" d="M38.2785 43.0454C37.9058 43.5867 38.0478 44.3231 38.589 44.6958C39.1303 45.0685 39.8667 44.9265 40.2394 44.3852C40.6121 43.844 40.4701 43.1075 39.9289 42.7348C39.3876 42.3622 38.6511 42.5041 38.2785 43.0454Z" fill="#181B3F"/>
<path id="Vector_17" d="M42.3868 45.8669C42.0141 46.4082 42.1561 47.1447 42.6974 47.5173C43.2386 47.89 43.9751 47.748 44.3478 47.2068C44.7204 46.6655 44.5785 45.9291 44.0372 45.5564C43.496 45.1837 42.7595 45.3257 42.3868 45.8669Z" fill="#181B3F"/>
</g>
<path id="Vector_18" d="M53.3397 52.2947L63.6114 59.3437L45.8132 85.2791C43.8702 88.1104 39.9841 88.8335 37.1528 86.8905C34.3215 84.9475 33.5984 81.0614 35.5414 78.2301L53.3397 52.2947Z" stroke="#181B3F" stroke-width="3" stroke-linecap="round" stroke-linejoin="round"/>
<path id="Vector_19" d="M75.3048 36.5906L70.2347 33.1113L55.8756 54.0352L60.9457 57.5146L75.3048 36.5906Z" stroke="#181B3F" stroke-width="3" stroke-linecap="round" stroke-linejoin="round"/>
<path id="Vector_20" d="M84.6759 17.6503L71.8099 8.82159C69.7158 7.38415 66.9119 9.1144 67.258 11.6344L70.2394 33.1161L75.3148 36.5944L97.6128 32.4417C100.177 31.9626 100.878 28.6174 98.7131 27.1445L84.6759 17.6414V17.6503Z" stroke="#181B3F" stroke-width="3" stroke-linecap="round" stroke-linejoin="round"/>
<path id="Vector_21" d="M75.0399 6L72.6885 9.42501" stroke="#181B3F" stroke-width="3" stroke-linecap="round" stroke-linejoin="round"/>
<path id="Vector_22" d="M75.1018 11.0754L72.7504 14.5005" stroke="#181B3F" stroke-width="3" stroke-linecap="round" stroke-linejoin="round"/>
<path id="Vector_23" d="M80.0175 9.41626L77.6662 12.8413" stroke="#181B3F" stroke-width="3" stroke-linecap="round" stroke-linejoin="round"/>
<path id="Vector_24" d="M80.0797 14.4917L77.7283 17.9167" stroke="#181B3F" stroke-width="3" stroke-linecap="round" stroke-linejoin="round"/>
<path id="Vector_25" d="M84.9954 12.8323L82.6441 16.2573" stroke="#181B3F" stroke-width="3" stroke-linecap="round" stroke-linejoin="round"/>
<path id="Vector_26" d="M85.0574 17.9077L82.706 21.3327" stroke="#181B3F" stroke-width="3" stroke-linecap="round" stroke-linejoin="round"/>
<path id="Vector_27" d="M89.9731 16.2485L87.6217 19.6735" stroke="#181B3F" stroke-width="3" stroke-linecap="round" stroke-linejoin="round"/>
<path id="Vector_28" d="M90.0353 21.3237L87.6839 24.7487" stroke="#181B3F" stroke-width="3" stroke-linecap="round" stroke-linejoin="round"/>
<path id="Vector_29" d="M94.951 19.6646L92.5996 23.0896" stroke="#181B3F" stroke-width="3" stroke-linecap="round" stroke-linejoin="round"/>
<path id="Vector_30" d="M99.4584 22.7522L97.107 26.1772" stroke="#181B3F" stroke-width="3" stroke-linecap="round" stroke-linejoin="round"/>
<path id="Vector_31" d="M95.013 24.74L92.6616 28.165" stroke="#181B3F" stroke-width="3" stroke-linecap="round" stroke-linejoin="round"/>
<path id="Vector_32" d="M53.9129 64.0745C54.79 64.0745 55.5011 63.3634 55.5011 62.4862C55.5011 61.6091 54.79 60.8979 53.9129 60.8979C53.0357 60.8979 52.3246 61.6091 52.3246 62.4862C52.3246 63.3634 53.0357 64.0745 53.9129 64.0745Z" fill="#181B3F"/>
<path id="Vector_33" d="M49.4674 70.6849C50.3446 70.6849 51.0557 69.9738 51.0557 69.0966C51.0557 68.2194 50.3446 67.5083 49.4674 67.5083C48.5902 67.5083 47.8792 68.2194 47.8792 69.0966C47.8792 69.9738 48.5902 70.6849 49.4674 70.6849Z" fill="#181B3F"/>
<path id="Vector_34" d="M45.3771 76.3724C46.2542 76.3724 46.9653 75.6613 46.9653 74.7841C46.9653 73.9069 46.2542 73.1958 45.3771 73.1958C44.4999 73.1958 43.7888 73.9069 43.7888 74.7841C43.7888 75.6613 44.4999 76.3724 45.3771 76.3724Z" fill="#181B3F"/>
</g>
</g>
</svg>
