<svg width="101" height="100" viewBox="0 0 101 100" fill="none" xmlns="http://www.w3.org/2000/svg">
<g id="Frame 3">
<g id="Layer 3">
<path id="Vector" d="M62.9769 61.7261C65.1951 63.4623 67.9435 64.5529 70.9726 64.7045C78.7595 65.0958 85.3994 59.1009 85.7897 51.306C86.0694 45.6842 83.026 40.6585 78.377 38.1576C78.8717 36.8333 79.1785 35.4094 79.2534 33.9231C79.6447 26.1361 73.6498 19.4963 65.8549 19.1059C62.6319 18.9438 59.6193 19.8747 57.1502 21.5723C54.7172 18.7757 51.2014 16.9274 47.2035 16.7314C39.4165 16.3401 32.7767 22.335 32.3863 30.1299C32.1484 34.9036 34.3028 39.2334 37.798 41.9756" stroke="#181B3F" stroke-width="3" stroke-linecap="round" stroke-linejoin="round"/>
<path id="Vector_2" d="M89.6871 47.1516C90.0162 46.0706 90.2192 44.9395 90.2722 43.7608C90.5555 38.1707 87.5482 33.1812 82.9451 30.6591C83.3287 29.4917 83.5678 28.2521 83.6332 26.9677C84.0244 19.1807 78.0295 12.5409 70.2346 12.1505C67.4154 12.0076 64.7464 12.7073 62.4755 14.0213C60.093 11.6769 56.8798 10.1643 53.2856 9.98744C49.8933 9.82017 46.7239 10.857 44.194 12.73" stroke="#181B3F" stroke-width="3" stroke-linecap="round" stroke-linejoin="round"/>
<path id="Vector_3" d="M35.5041 61.2043L44.765 37.6148" stroke="#181B3F" stroke-width="3" stroke-linecap="round" stroke-linejoin="round"/>
<path id="Vector_4" d="M42.7961 60.9762L58.2489 41.5466" stroke="#181B3F" stroke-width="3" stroke-linecap="round" stroke-linejoin="round"/>
<path id="Vector_5" d="M44.3705 68.383L63.4744 54.5297" stroke="#181B3F" stroke-width="3" stroke-linecap="round" stroke-linejoin="round"/>
<g id="Group">
<path id="Vector_6" d="M31.8364 78.6995L27.2838 75.0618L15.1549 90.2412L19.7075 93.8789L31.8364 78.6995Z" stroke="#181B3F" stroke-width="3" stroke-linecap="round" stroke-linejoin="round"/>
<path id="Vector_7" d="M40.3456 70.4365L33.4543 64.9302L26.1042 74.1289L32.9955 79.6353L40.3456 70.4365Z" stroke="#181B3F" stroke-width="3" stroke-linecap="round" stroke-linejoin="round"/>
<path id="Vector_8" d="M40.6696 67.6277L36.1171 63.99L34.6271 65.8547L39.1797 69.4924L40.6696 67.6277Z" stroke="#181B3F" stroke-width="3" stroke-linecap="round" stroke-linejoin="round"/>
</g>
</g>
</g>
</svg>
