<svg width="58" height="57" viewBox="0 0 58 57" fill="none" xmlns="http://www.w3.org/2000/svg">
<path id="Vector" d="M37.5248 4.57111L34.8148 7.28875M40.1969 7.23561L37.4793 9.95325M42.8614 9.9077L40.1514 12.6253M45.5335 12.5722L42.8159 15.2898M48.198 15.2443L45.488 17.9619M50.8701 17.9088L48.1525 20.6264M53.5346 20.5809L50.8246 23.2985M49.3822 21.8562L46.6646 24.5663M46.6798 19.1537L43.9622 21.8714M43.9849 16.4589L41.2673 19.1689M41.2825 13.7564L38.5648 16.4741M38.58 11.0616L35.87 13.7716M35.8852 8.3591L33.1675 11.0767M32.583 1.86865V5.70978M28.5369 4.85198L30.2221 6.53722M26.6315 8.73866L28.9392 9.35355M32.0744 8.47297L31.748 6.11212M56.0397 25.3254H52.1986M53.0564 29.3715L51.3711 27.6862M49.1697 31.2768L48.5548 28.9691M49.4354 25.834L51.7962 26.1604M22.6613 35.3457L17.5753 40.4242M17.5199 40.3708C19.0515 41.9023 19.0515 44.3854 17.5199 45.917L8.65517 54.7817C7.12362 56.3133 4.64048 56.3133 3.10893 54.7817C1.57738 53.2502 1.57738 50.767 3.10893 49.2355L11.9737 40.3708C13.5052 38.8392 15.9884 38.8392 17.5199 40.3708ZM49.5644 29.0906L22.6613 35.3381L28.9089 8.43501C29.1821 7.25079 30.0172 6.37022 31.1938 6.0362C32.3628 5.70219 33.5395 6.00584 34.3973 6.86364L51.1282 23.5946C51.986 24.4524 52.2897 25.629 51.9557 26.7981C51.6217 27.9671 50.7411 28.8021 49.5569 29.083L49.5644 29.0906Z" stroke="#BC1922" stroke-width="2" stroke-miterlimit="2.61313" stroke-linecap="round" stroke-linejoin="round"/>
</svg>
