<svg width="52" height="62" viewBox="0 0 52 62" fill="none" xmlns="http://www.w3.org/2000/svg">
<path id="Vector" d="M32.5005 52.1202H8.46234V24.2237M8.46234 24.2237H40.8938V30.0071M8.46234 24.2237V31.4251H29.7759M24.6773 52.1202V31.4251M19.464 38.2567V45.287M4.52489 13.4094H46.1475V5.77195C46.1475 3.37847 44.1885 1.41943 41.795 1.41943H8.87741C6.48393 1.41943 4.52489 3.37847 4.52489 5.77195V13.4094ZM13.5432 5.43118H37.1292C37.9436 5.43118 38.6037 6.09134 38.6037 6.9057C38.6037 7.72006 37.9436 8.38023 37.1292 8.38023H13.5432C12.7289 8.38023 12.0687 7.72006 12.0687 6.9057C12.0687 6.09134 12.7289 5.43118 13.5432 5.43118ZM1.12686 13.4094H49.5456V24.0121H1.12686V13.4094ZM13.2315 18.71C13.2315 19.618 12.4954 20.3541 11.5874 20.3541C10.6794 20.3541 9.94333 19.618 9.94333 18.71C9.94333 17.802 10.6794 17.0659 11.5874 17.0659C12.4954 17.0659 13.2315 17.802 13.2315 18.71ZM26.9803 18.71C26.9803 19.618 26.2442 20.3541 25.3362 20.3541C24.4282 20.3541 23.6921 19.618 23.6921 18.71C23.6921 17.802 24.4282 17.0659 25.3362 17.0659C26.2442 17.0659 26.9803 17.802 26.9803 18.71ZM40.7291 18.71C40.7291 19.618 39.993 20.3541 39.085 20.3541C38.177 20.3541 37.4409 19.618 37.4409 18.71C37.4409 17.802 38.177 17.0659 39.085 17.0659C39.993 17.0659 40.7291 17.802 40.7291 18.71ZM5.00294 24.2237H8.46073V56.996H5.00294V24.2237ZM36.6818 60.3795H45.3546V45.4808C48.6234 43.8771 50.8731 40.5162 50.8731 36.6288C50.8731 32.3538 48.1502 28.7151 44.3452 27.3504V35.8891L41.0198 39.2887L37.6945 35.8891V27.3504C33.8878 28.7151 31.1665 32.3538 31.1665 36.6288C31.1665 40.5162 33.4162 43.8754 36.6851 45.4808V60.3795H36.6818Z" stroke="#BC1922" stroke-width="2" stroke-miterlimit="2.61313" stroke-linecap="round" stroke-linejoin="round"/>
</svg>
