<svg width="54" height="51" viewBox="0 0 54 51" fill="none" xmlns="http://www.w3.org/2000/svg">
<path id="Vector" d="M43.0373 41.718C43.0373 43.4926 41.5851 44.9449 39.8105 44.9449H36.6705M11.05 44.9449H5.09005C3.3155 44.9449 1.86322 43.4926 1.86322 41.718V5.05154C1.86322 3.27699 3.3155 1.82471 5.09005 1.82471H39.8085C41.583 1.82471 43.0353 3.27699 43.0353 5.05154M1.86529 8.96216H33.4622M1.86529 15.7588H26.3537M1.86529 22.5553H19.7327M1.86529 29.3519H13.3906M1.86529 36.1485H9.27956M49.5179 13.7892C52.9467 17.2179 53.0178 22.7059 49.6768 26.047L28.2092 47.5146C24.8681 50.8556 19.3801 50.7845 15.9514 47.3558C12.5226 43.927 12.4515 38.439 15.7925 35.0979L37.2601 13.6304C40.6012 10.2893 46.0892 10.3604 49.5179 13.7892ZM32.9036 17.9869L45.3202 30.4035L32.8792 42.8446L20.4625 30.428L32.9036 17.9869ZM33.6441 26.1465C33.1835 26.6071 32.4366 26.6071 31.976 26.1465C31.5153 25.6858 31.5153 24.939 31.976 24.4783C32.4366 24.0177 33.1835 24.0177 33.6441 24.4783C34.1047 24.939 34.1047 25.6858 33.6441 26.1465ZM28.6221 31.1685C28.1614 31.6292 27.4146 31.6292 26.9539 31.1685C26.4933 30.7079 26.4933 29.961 26.9539 29.5004C27.4146 29.0397 28.1614 29.0397 28.6221 29.5004C29.0827 29.961 29.0827 30.7079 28.6221 31.1685ZM38.8293 31.3317C38.3687 31.7924 37.6218 31.7924 37.1612 31.3317C36.7006 30.8711 36.7006 30.1242 37.1612 29.6636C37.6218 29.2029 38.3687 29.2029 38.8293 29.6636C39.29 30.1242 39.29 30.8711 38.8293 31.3317ZM33.8073 36.3538C33.3467 36.8144 32.5998 36.8144 32.1392 36.3538C31.6785 35.8931 31.6785 35.1463 32.1392 34.6856C32.5998 34.225 33.3467 34.225 33.8073 34.6856C34.2679 35.1463 34.2679 35.8931 33.8073 36.3538ZM33.6323 31.0198C33.1717 31.4804 32.4248 31.4804 31.9642 31.0198C31.5035 30.5591 31.5035 29.8123 31.9642 29.3516C32.4248 28.891 33.1717 28.891 33.6323 29.3516C34.093 29.8123 34.093 30.5591 33.6323 31.0198Z" stroke="white" stroke-width="2" stroke-miterlimit="2.61313" stroke-linecap="round" stroke-linejoin="round"/>
</svg>
