<svg width="37" height="37" viewBox="0 0 37 37" fill="none" xmlns="http://www.w3.org/2000/svg">
<g id="Group 15">
<path id="Vector" d="M12.4251 18.0922C12.4251 14.7756 15.1495 12.0864 18.5111 12.0864C21.8727 12.0864 24.5986 14.7756 24.5986 18.0922C24.5986 21.4087 21.8727 24.098 18.5111 24.098C15.1495 24.098 12.4251 21.4087 12.4251 18.0922ZM9.13432 18.0922C9.13432 23.2015 13.3323 27.3432 18.5111 27.3432C23.6899 27.3432 27.8879 23.2015 27.8879 18.0922C27.8879 12.9828 23.6899 8.84117 18.5111 8.84117C13.3323 8.84117 9.13432 12.9828 9.13432 18.0922ZM26.0678 8.47437C26.0676 8.90195 26.196 9.31999 26.4366 9.67561C26.6772 10.0312 27.0194 10.3085 27.4197 10.4723C27.82 10.636 28.2606 10.679 28.6857 10.5958C29.1108 10.5125 29.5014 10.3068 29.808 10.0046C30.1145 9.70232 30.3234 9.31719 30.4081 8.89785C30.4928 8.47851 30.4496 8.0438 30.2839 7.6487C30.1182 7.25359 29.8375 6.91584 29.4772 6.67814C29.117 6.44044 28.6934 6.31348 28.26 6.31331H28.2591C27.6782 6.31358 27.1211 6.54132 26.7102 6.94651C26.2993 7.35171 26.0683 7.90122 26.0678 8.47437ZM11.1337 32.7568C9.35331 32.6768 8.38562 32.3842 7.74255 32.137C6.88998 31.8096 6.28167 31.4195 5.6421 30.7894C5.00253 30.1593 4.60663 29.5597 4.27618 28.7186C4.02549 28.0844 3.72894 27.1294 3.648 25.3729C3.55947 23.4739 3.5418 22.9035 3.5418 18.0923C3.5418 13.2812 3.56094 12.7123 3.648 10.8117C3.72908 9.0552 4.02783 8.10208 4.27618 7.46605C4.60809 6.62492 5.00341 6.02477 5.6421 5.39377C6.2808 4.76278 6.88852 4.3722 7.74255 4.04618C8.38533 3.79885 9.35331 3.50627 11.1337 3.42643C13.0585 3.33909 13.6367 3.32165 18.5111 3.32165C23.3855 3.32165 23.9643 3.34053 25.8907 3.42643C27.6711 3.50642 28.6372 3.80116 29.2819 4.04618C30.1344 4.3722 30.7427 4.76365 31.3823 5.39377C32.0219 6.0239 32.4163 6.62492 32.7482 7.46605C32.9989 8.10021 33.2955 9.0552 33.3764 10.8117C33.4649 12.7123 33.4826 13.2812 33.4826 18.0923C33.4826 22.9035 33.4649 23.4723 33.3764 25.3729C33.2953 27.1294 32.9973 28.0841 32.7482 28.7186C32.4163 29.5597 32.021 30.1599 31.3823 30.7894C30.7436 31.419 30.1344 31.8096 29.2819 32.137C28.6391 32.3843 27.6711 32.6769 25.8907 32.7568C23.9659 32.8441 23.3877 32.8615 18.5111 32.8615C13.6346 32.8615 13.0579 32.8441 11.1337 32.7568ZM10.9825 0.185277C9.03849 0.272618 7.71012 0.576728 6.55003 1.02208C5.34861 1.482 4.33155 2.09901 3.31522 3.10012C2.29889 4.10123 1.67509 5.10624 1.20893 6.29155C0.757515 7.43679 0.44927 8.74662 0.360741 10.6645C0.270751 12.5855 0.250153 13.1996 0.250153 18.0922C0.250153 22.9847 0.270751 23.5989 0.360741 25.5198C0.44927 27.4379 0.757515 28.7476 1.20893 29.8928C1.67509 31.0774 2.29903 32.0835 3.31522 33.0842C4.3314 34.0849 5.34861 34.7011 6.55003 35.1623C7.71231 35.6076 9.03849 35.9117 10.9825 35.9991C12.9306 36.0864 13.552 36.1082 18.5111 36.1082C23.4702 36.1082 24.0927 36.0879 26.0397 35.9991C27.9839 35.9117 29.3114 35.6076 30.4722 35.1623C31.6729 34.7011 32.6907 34.0853 33.707 33.0842C34.7233 32.0831 35.3458 31.0774 35.8133 29.8928C36.2647 28.7476 36.5744 27.4377 36.6615 25.5198C36.75 23.5974 36.7706 22.9847 36.7706 18.0922C36.7706 13.1996 36.75 12.5855 36.6615 10.6645C36.5729 8.74648 36.2647 7.43607 35.8133 6.29155C35.3458 5.10696 34.7217 4.10282 33.707 3.10012C32.6923 2.09742 31.6729 1.482 30.4736 1.02208C29.3114 0.576728 27.9837 0.271177 26.0412 0.185277C24.0941 0.0979352 23.4717 0.0761719 18.5126 0.0761719C13.5535 0.0761719 12.9306 0.0964939 10.9825 0.185277Z" fill="white"/>
</g>
</svg>
