<svg width="56" height="56" viewBox="0 0 56 56" fill="none" xmlns="http://www.w3.org/2000/svg">
<path id="Vector" d="M21.3838 27.5937L26.0845 32.299L34.447 23.8473M24.0491 1.5708H31.9509L32.5009 7.15519C35.044 7.69107 37.4178 8.6641 39.5425 9.99909L43.8201 6.4877L49.4092 12.0768L45.9824 16.2557C47.4161 18.4039 48.4644 20.8294 49.0331 23.4242L54.3261 23.946V31.8478L49.0331 32.3696C48.4691 34.969 47.4161 37.3899 45.9824 39.5428L49.4092 43.7217L43.8201 49.3108L39.5425 45.7994C37.4178 47.1343 35.044 48.1074 32.5009 48.6433L31.9509 54.2276H24.0491L23.4991 48.6433C20.9561 48.1074 18.5822 47.1343 16.4575 45.7994L12.1799 49.3108L6.59085 43.7217L10.0223 39.5428C8.58863 37.3946 7.54038 34.969 6.9716 32.3743L1.67395 31.8525V23.946L6.9716 23.4242C7.53568 20.8247 8.58863 18.4039 10.0223 16.2557L6.59085 12.0768L12.1799 6.4877L16.4575 9.99909C18.5822 8.6641 20.9561 7.69107 23.4991 7.15519L24.0491 1.5708ZM42.0245 27.8992C42.0245 35.5344 35.7466 41.7239 28.0024 41.7239C20.2582 41.7239 13.9803 35.5344 13.9803 27.8992C13.9803 20.2641 20.2582 14.0746 28.0024 14.0746C35.7466 14.0746 42.0245 20.2641 42.0245 27.8992Z" stroke="#BC1922" stroke-width="2" stroke-miterlimit="2.61313" stroke-linecap="round" stroke-linejoin="round"/>
</svg>
