<svg width="42" height="41" viewBox="0 0 42 41" fill="none" xmlns="http://www.w3.org/2000/svg">
<g id="Social Media / Messenger">
<rect id="Logo Container" x="0.787552" width="40.4593" height="40.4593" rx="8.83759" fill="url(#paint0_radial_586_8446)"/>
<g id="Vector">
<path d="M21.0213 8.90088C15.3207 8.90088 10.9004 13.0783 10.9004 18.7181C10.9004 21.6684 12.1099 24.2189 14.0784 25.9799C14.2429 26.1266 14.3441 26.3341 14.3491 26.5568L14.4048 28.3583C14.4088 28.4909 14.4454 28.6204 14.5112 28.7355C14.5771 28.8506 14.6702 28.9478 14.7824 29.0185C14.8945 29.0892 15.0224 29.1313 15.1546 29.141C15.2869 29.1508 15.4195 29.1279 15.5409 29.0744L17.5499 28.1888C17.7194 28.1129 17.9117 28.1002 18.0913 28.1483C19.0149 28.4013 19.9966 28.5379 21.0213 28.5379C26.7219 28.5379 31.1422 24.3605 31.1422 18.7207C31.1422 13.0808 26.7219 8.90088 21.0213 8.90088Z" fill="white"/>
<path d="M14.9437 21.5899L17.9167 16.8736C18.0286 16.696 18.176 16.5436 18.3497 16.4259C18.5235 16.3082 18.7197 16.2278 18.9261 16.1897C19.1325 16.1517 19.3445 16.1568 19.5488 16.2049C19.7531 16.2529 19.9452 16.3428 20.113 16.4688L22.4787 18.2425C22.5843 18.3215 22.7128 18.3641 22.8448 18.3636C22.9767 18.3631 23.1049 18.3197 23.21 18.2399L26.4031 15.816C26.8282 15.4921 27.3848 16.0032 27.1014 16.4561L24.1259 21.1699C24.0141 21.3475 23.8666 21.5 23.6929 21.6177C23.5192 21.7354 23.3229 21.8158 23.1165 21.8538C22.9102 21.8919 22.6981 21.8867 22.4939 21.8387C22.2896 21.7907 22.0975 21.7008 21.9297 21.5748L19.5639 19.8011C19.4583 19.722 19.3298 19.6795 19.1979 19.6799C19.0659 19.6804 18.9377 19.7238 18.8327 19.8036L15.6395 22.2276C15.2145 22.5514 14.6578 22.0429 14.9437 21.5899Z" fill="url(#paint1_radial_586_8446)"/>
</g>
</g>
<defs>
<radialGradient id="paint0_radial_586_8446" cx="0" cy="0" r="1" gradientUnits="userSpaceOnUse" gradientTransform="translate(7.56448 40.4582) scale(44.5052 44.504)">
<stop stop-color="#0099FF"/>
<stop offset="0.6" stop-color="#A033FF"/>
<stop offset="0.9" stop-color="#FF5280"/>
<stop offset="1" stop-color="#FF7061"/>
</radialGradient>
<radialGradient id="paint1_radial_586_8446" cx="0" cy="0" r="1" gradientUnits="userSpaceOnUse" gradientTransform="translate(14.2909 29.1427) scale(22.266 22.266)">
<stop stop-color="#0099FF"/>
<stop offset="0.6" stop-color="#A033FF"/>
<stop offset="0.9" stop-color="#FF5280"/>
<stop offset="1" stop-color="#FF7061"/>
</radialGradient>
</defs>
</svg>
