<svg width="60" height="58" viewBox="0 0 60 58" fill="none" xmlns="http://www.w3.org/2000/svg">
<path id="Vector" d="M18.9439 52.2706C19.4962 52.2706 19.9439 51.8229 19.9439 51.2706C19.9439 50.7183 19.4962 50.2706 18.9439 50.2706V52.2706ZM2.37357 46.3372L1.50754 45.8372L1.50739 45.8375L2.37357 46.3372ZM15.6284 25.3788C15.9045 24.9005 15.7406 24.2889 15.2623 24.0128C14.784 23.7366 14.1724 23.9005 13.8963 24.3788L15.6284 25.3788ZM19.3124 14.9999C19.0363 15.4782 19.2003 16.0898 19.6786 16.3659C20.1569 16.642 20.7685 16.4781 21.0446 15.9998L19.3124 14.9999ZM27.1511 3.42034L28.0172 3.92026L28.0173 3.92006L27.1511 3.42034ZM32.8489 3.42034L31.9827 3.92006L31.9829 3.92033L32.8489 3.42034ZM44.3716 25.3788C44.6478 25.8571 45.2594 26.021 45.7377 25.7448C46.2159 25.4687 46.3798 24.8571 46.1037 24.3788L44.3716 25.3788ZM51.3564 33.4786C51.0802 33.0003 50.4686 32.8365 49.9903 33.1126C49.5121 33.3888 49.3482 34.0004 49.6244 34.4787L51.3564 33.4786ZM57.6264 46.3372L58.4926 45.8375L58.4924 45.8372L57.6264 46.3372ZM30 50.2706C29.4477 50.2706 29 50.7183 29 51.2706C29 51.8229 29.4477 52.2706 30 52.2706V50.2706ZM37.5589 19.3976C37.0883 19.1085 36.4725 19.2556 36.1834 19.7262C35.8943 20.1968 36.0415 20.8126 36.512 21.1017L37.5589 19.3976ZM45.4262 25.4043L44.9028 26.2564C45.2131 26.447 45.6025 26.4539 45.9193 26.2743C46.2361 26.0947 46.4303 25.7571 46.4262 25.393L45.4262 25.4043ZM46.3155 15.6343C46.3093 15.0821 45.8565 14.6395 45.3043 14.6457C44.752 14.652 44.3094 15.1048 44.3157 15.657L46.3155 15.6343ZM13.6747 33.8985C13.6596 34.4506 14.0949 34.9104 14.647 34.9255C15.1991 34.9406 15.6589 34.5052 15.674 33.9532L13.6747 33.8985ZM14.9434 24.0842L15.943 24.1115C15.953 23.7475 15.7642 23.4069 15.4503 23.2222C15.1365 23.0376 14.747 23.0382 14.4337 23.2238L14.9434 24.0842ZM6.03791 28.1975C5.56274 28.4789 5.40573 29.0923 5.68722 29.5675C5.9687 30.0427 6.58209 30.1997 7.05726 29.9182L6.03791 28.1975ZM38.598 47.4302C39.0836 47.1672 39.2641 46.5603 39.001 46.0747C38.738 45.5891 38.1311 45.4086 37.6454 45.6717L38.598 47.4302ZM29.4644 51.2404L28.9881 50.3612C28.6679 50.5346 28.4673 50.8684 28.4645 51.2326C28.4616 51.5967 28.6569 51.9336 28.9743 52.1121L29.4644 51.2404ZM37.4808 56.8946C37.9622 57.1653 38.5719 56.9944 38.8425 56.513C39.1132 56.0316 38.9423 55.4219 38.4609 55.1513L37.4808 56.8946ZM37.8024 29.5959L38.7998 29.6684C38.8199 29.3913 38.7238 29.1183 38.5347 28.9149C38.3455 28.7115 38.0802 28.5959 37.8024 28.5959V29.5959ZM27.2743 36.3548L26.9255 37.292L26.9266 37.2924L27.2743 36.3548ZM22.2001 29.5959V28.5959C21.9224 28.5959 21.6573 28.7114 21.4681 28.9147C21.2789 29.1179 21.1828 29.3907 21.2027 29.6677L22.2001 29.5959ZM27.5515 22.0218C27.1609 21.6313 26.5278 21.6313 26.1372 22.0218C25.7467 22.4123 25.7467 23.0455 26.1372 23.436L27.5515 22.0218ZM26.1379 28.2066C26.5287 28.5968 27.1619 28.5962 27.5521 28.2053C27.9423 27.8145 27.9417 27.1813 27.5508 26.7911L26.1379 28.2066ZM30.7272 22.0218C30.3367 21.6313 29.7035 21.6313 29.313 22.0218C28.9225 22.4123 28.9225 23.0455 29.313 23.436L30.7272 22.0218ZM29.3136 28.2066C29.7045 28.5968 30.3377 28.5962 30.7279 28.2053C31.118 27.8145 31.1175 27.1813 30.7266 26.7911L29.3136 28.2066ZM33.903 22.0218C33.5125 21.6313 32.8793 21.6313 32.4888 22.0218C32.0983 22.4123 32.0983 23.0455 32.4888 23.436L33.903 22.0218ZM32.4894 28.2066C32.8803 28.5968 33.5135 28.5962 33.9036 28.2053C34.2938 27.8145 34.2932 27.1813 33.9024 26.7911L32.4894 28.2066ZM25.238 41.3844C25.1287 41.9257 25.4789 42.4532 26.0202 42.5626C26.5616 42.6719 27.0891 42.3218 27.1984 41.7804L25.238 41.3844ZM28.252 36.5654C28.3614 36.0241 28.0112 35.4965 27.4698 35.3872C26.9285 35.2778 26.401 35.628 26.2916 36.1694L28.252 36.5654ZM33.1285 41.7809C33.2381 42.3222 33.7658 42.6721 34.3071 42.5625C34.8484 42.4529 35.1984 41.9252 35.0887 41.3839L33.1285 41.7809ZM34.0327 36.1689C33.923 35.6276 33.3954 35.2777 32.8541 35.3873C32.3128 35.4969 31.9628 36.0246 32.0725 36.5659L34.0327 36.1689ZM18.9439 50.2706H5.22246V52.2706H18.9439V50.2706ZM5.22246 50.2706C4.37221 50.2706 3.6643 49.8623 3.23976 49.1264L1.50739 50.1259C2.28979 51.482 3.65882 52.2706 5.22246 52.2706V50.2706ZM3.23976 49.1264C2.8147 48.3897 2.8147 47.5737 3.23976 46.837L1.50739 45.8375C0.725494 47.1928 0.725494 48.7706 1.50739 50.1259L3.23976 49.1264ZM3.2396 46.8372L15.6284 25.3788L13.8963 24.3788L1.50754 45.8372L3.2396 46.8372ZM21.0446 15.9998L28.0172 3.92026L26.285 2.92042L19.3124 14.9999L21.0446 15.9998ZM28.0173 3.92006C28.4418 3.18419 29.1498 2.77588 30 2.77588V0.775879C28.4364 0.775879 27.0673 1.56445 26.2849 2.92062L28.0173 3.92006ZM30 2.77588C30.8502 2.77588 31.5582 3.18419 31.9827 3.92006L33.7151 2.92062C32.9327 1.56445 31.5636 0.775879 30 0.775879V2.77588ZM31.9829 3.92033L44.3716 25.3788L46.1037 24.3788L33.7149 2.92035L31.9829 3.92033ZM49.6244 34.4787L56.7604 46.8373L58.4924 45.8372L51.3564 33.4786L49.6244 34.4787ZM56.7602 46.837C57.1853 47.5737 57.1853 48.3897 56.7602 49.1264L58.4926 50.1259C59.2745 48.7706 59.2745 47.1928 58.4926 45.8375L56.7602 46.837ZM56.7602 49.1264C56.3357 49.8623 55.6278 50.2706 54.7775 50.2706V52.2706C56.3412 52.2706 57.7102 51.482 58.4926 50.1259L56.7602 49.1264ZM54.7775 50.2706H30V52.2706H54.7775V50.2706ZM36.512 21.1017L44.9028 26.2564L45.9497 24.5522L37.5589 19.3976L36.512 21.1017ZM46.4262 25.393L46.3155 15.6343L44.3157 15.657L44.4263 25.4156L46.4262 25.393ZM15.674 33.9532L15.943 24.1115L13.9438 24.0569L13.6747 33.8985L15.674 33.9532ZM14.4337 23.2238L6.03791 28.1975L7.05726 29.9182L15.4531 24.9446L14.4337 23.2238ZM37.6454 45.6717L28.9881 50.3612L29.9407 52.1197L38.598 47.4302L37.6454 45.6717ZM28.9743 52.1121L37.4808 56.8946L38.4609 55.1513L29.9545 50.3688L28.9743 52.1121ZM36.805 29.5235C36.5485 33.0553 33.6008 35.8426 30 35.8426V37.8426C34.6567 37.8426 38.4679 34.2382 38.7998 29.6684L36.805 29.5235ZM30 35.8426C29.1632 35.8426 28.3605 35.6911 27.6221 35.4172L26.9266 37.2924C27.8829 37.6471 28.9208 37.8426 30 37.8426V35.8426ZM27.6231 35.4176C25.176 34.5068 23.3924 32.2329 23.1976 29.5242L21.2027 29.6677C21.4554 33.1797 23.7654 36.1158 26.9255 37.292L27.6231 35.4176ZM22.2001 30.5959H37.8024V28.5959H22.2001V30.5959ZM26.1372 23.436C26.2085 23.5073 26.234 23.5556 26.2145 23.7193C26.1859 23.9592 26.0747 24.2469 25.8874 24.7123C25.7277 25.1091 25.4954 25.6748 25.4416 26.2554C25.3809 26.9101 25.5415 27.6113 26.1379 28.2066L27.5508 26.7911C27.4431 26.6836 27.4179 26.6034 27.4331 26.4399C27.4551 26.2022 27.5602 25.9126 27.7428 25.4589C27.8978 25.0738 28.1337 24.5157 28.2005 23.9561C28.2762 23.3204 28.1453 22.6156 27.5515 22.0218L26.1372 23.436ZM29.313 23.436C29.3843 23.5073 29.4098 23.5556 29.3903 23.7193C29.3617 23.9592 29.2505 24.2469 29.0632 24.7123C28.9035 25.1091 28.6712 25.6748 28.6174 26.2554C28.5567 26.9101 28.7173 27.6113 29.3136 28.2066L30.7266 26.7911C30.6189 26.6836 30.5937 26.6034 30.6089 26.4399C30.6309 26.2022 30.736 25.9126 30.9186 25.4589C31.0736 25.0738 31.3095 24.5157 31.3762 23.9561C31.452 23.3204 31.321 22.6156 30.7272 22.0218L29.313 23.436ZM32.4888 23.436C32.56 23.5073 32.5856 23.5556 32.5661 23.7193C32.5375 23.9592 32.4262 24.2469 32.239 24.7123C32.0792 25.1091 31.847 25.6748 31.7932 26.2554C31.7325 26.9101 31.8931 27.6113 32.4894 28.2066L33.9024 26.7911C33.7947 26.6836 33.7695 26.6034 33.7846 26.4399C33.8067 26.2022 33.9118 25.9126 34.0943 25.4589C34.2494 25.0738 34.4853 24.5157 34.552 23.9561C34.6278 23.3204 34.4968 22.6156 33.903 22.0218L32.4888 23.436ZM27.1984 41.7804L28.252 36.5654L26.2916 36.1694L25.238 41.3844L27.1984 41.7804ZM35.0887 41.3839L34.0327 36.1689L32.0725 36.5659L33.1285 41.7809L35.0887 41.3839ZM26.6507 40.606H33.6359V38.606H26.6507V40.606Z" fill="#BC1922"/>
</svg>
