<svg width="24" height="25" viewBox="0 0 24 25" fill="none" xmlns="http://www.w3.org/2000/svg">
<path id="Vector" d="M12 0.399414C18.6277 0.399414 24 5.77176 24 12.3994C24 19.0271 18.6277 24.3994 12 24.3994C5.37235 24.3994 0 19.0271 0 12.3994C0 5.77176 5.37235 0.399414 12 0.399414ZM16.1395 17.2907C16.3602 16.6135 17.3943 9.86428 17.5221 8.53437C17.5607 8.13159 17.4334 7.86394 17.184 7.74446C16.8824 7.59941 16.4358 7.67194 15.9177 7.85872C15.2071 8.11489 6.12261 11.9721 5.59774 12.1954C5.1 12.4067 4.62939 12.6373 4.62939 12.9712C4.62939 13.206 4.7687 13.338 5.1527 13.4752C5.55235 13.6177 6.55878 13.9229 7.15304 14.0867C7.72539 14.2448 8.37704 14.1076 8.74226 13.8806C9.12939 13.6401 13.597 10.6505 13.9179 10.3886C14.2383 10.1267 14.4939 10.4622 14.232 10.7246C13.9701 10.9865 10.9033 13.9631 10.499 14.3752C10.008 14.8756 10.3565 15.3942 10.6857 15.6018C11.0619 15.8387 13.7671 17.6533 14.1746 17.9445C14.5821 18.2356 14.9953 18.3676 15.3736 18.3676C15.7518 18.3676 15.9511 17.8693 16.1395 17.2907Z" fill="white"/>
</svg>
