<svg width="41" height="41" viewBox="0 0 41 41" fill="none" xmlns="http://www.w3.org/2000/svg">
<g id="Social Media / Telegram">
<rect id="Logo Container" x="0.328247" width="40.4593" height="40.4593" rx="8.83759" fill="#34AADF"/>
<path id="Vector" d="M11.5842 19.5132C11.5842 19.5132 19.8155 16.0463 22.6703 14.8255C23.7646 14.3373 27.4758 12.7747 27.4758 12.7747C27.4758 12.7747 29.1887 12.0911 29.046 13.7513C28.9984 14.4349 28.6177 16.8276 28.2371 19.4156C27.6661 23.0778 27.0476 27.0818 27.0476 27.0818C27.0476 27.0818 26.9525 28.205 26.1436 28.4003C25.3348 28.5956 24.0025 27.7167 23.7646 27.5213C23.5743 27.3749 20.1961 25.1775 18.959 24.1032C18.626 23.8103 18.2454 23.2243 19.0066 22.5407C20.7195 20.9293 22.7654 18.9273 24.0025 17.6577C24.5735 17.0717 25.1444 15.7045 22.7654 17.3647C19.3873 19.7574 16.0567 22.0036 16.0567 22.0036C16.0567 22.0036 15.2954 22.4918 13.868 22.0524C12.4406 21.6129 10.7753 21.0269 10.7753 21.0269C10.7753 21.0269 9.63342 20.2945 11.5842 19.5132Z" fill="white"/>
</g>
</svg>
