<svg width="38" height="32" viewBox="0 0 38 32" fill="none" xmlns="http://www.w3.org/2000/svg">
<g id="Capa 2">
<g id="ELEMENTS">
<path id="Vector" d="M36.8696 4.60105C35.6807 5.11313 34.4309 5.46972 33.151 5.66199C33.7494 5.55932 34.6299 4.48126 34.9804 4.04491C35.5128 3.3867 35.9186 2.63531 36.1771 1.8289C36.1771 1.76901 36.237 1.68345 36.1771 1.64067C36.147 1.62419 36.1132 1.61556 36.0788 1.61556C36.0445 1.61556 36.0107 1.62419 35.9805 1.64067C34.5907 2.39396 33.1116 2.96889 31.5781 3.35187C31.5247 3.36821 31.4678 3.36968 31.4135 3.35611C31.3593 3.34255 31.3098 3.31446 31.2704 3.27487C31.151 3.13261 31.0225 2.99828 30.8857 2.87273C30.2602 2.31184 29.5506 1.85278 28.7828 1.51233C27.7463 1.08673 26.6268 0.902417 25.5087 0.9733C24.4239 1.04187 23.3647 1.33311 22.3971 1.8289C21.4443 2.35161 20.6068 3.06172 19.9352 3.91657C19.2286 4.79643 18.7185 5.81752 18.4392 6.91117C18.2088 7.95146 18.1827 9.02663 18.3623 10.0769C18.3623 10.2566 18.3623 10.2822 18.2084 10.2566C12.1134 9.35819 7.11254 7.19352 3.0264 2.54761C2.84688 2.34226 2.75285 2.34226 2.60753 2.54761C0.829459 5.25131 1.69285 9.52931 3.91544 11.6426C4.21463 11.925 4.52237 12.1988 4.84721 12.4555C3.82817 12.3831 2.83402 12.1067 1.92366 11.6426C1.75269 11.5314 1.65865 11.5913 1.65011 11.7967C1.62587 12.0813 1.62587 12.3676 1.65011 12.6523C1.82847 14.0166 2.36567 15.309 3.20677 16.3974C4.04787 17.4858 5.16269 18.3311 6.43722 18.8468C6.74792 18.98 7.07166 19.0804 7.40319 19.1463C6.45981 19.3322 5.49225 19.3611 4.53947 19.2318C4.33431 19.1891 4.25737 19.3003 4.33431 19.4971C5.59092 22.9195 8.31787 23.9633 10.3182 24.5451C10.5917 24.5879 10.8653 24.5879 11.173 24.6563C11.173 24.6563 11.173 24.6563 11.1217 24.7077C10.5319 25.7857 8.1469 26.513 7.0527 26.8895C5.05551 27.6075 2.92614 27.8819 0.812362 27.6937C0.478974 27.6424 0.402038 27.6509 0.316554 27.6937C0.23107 27.7365 0.316554 27.8306 0.410587 27.9162C0.838007 28.1985 1.26543 28.4467 1.70995 28.6862C3.03328 29.4087 4.43231 29.9825 5.88157 30.3974C13.3871 32.468 21.8329 30.945 27.4663 25.3408C31.8944 20.943 33.4502 14.8768 33.4502 8.80205C33.4502 8.57104 33.7323 8.43414 33.8947 8.31436C35.015 7.4407 36.0027 6.40893 36.8268 5.25131C36.9696 5.07875 37.0427 4.85904 37.032 4.63527C37.032 4.50693 37.032 4.5326 36.8696 4.60105Z" fill="white"/>
</g>
</g>
</svg>
