<svg width="23" height="23" viewBox="0 0 23 23" fill="none" xmlns="http://www.w3.org/2000/svg">
<path id="Vector" d="M11.5 0C5.15906 0 7.42124e-05 5.159 7.42124e-05 11.5C7.42124e-05 13.48 0.511572 15.427 1.48157 17.145L0.0185741 22.365C-0.0294257 22.5365 0.0170742 22.7205 0.141074 22.848C0.236573 22.9465 0.366573 23 0.500073 23C0.540072 23 0.580572 22.995 0.620072 22.9855L6.06805 21.636C7.73155 22.529 9.60504 23 11.5 23C17.841 23 23 17.841 23 11.5C23 5.159 17.841 0 11.5 0ZM17.285 15.558C17.039 16.239 15.859 16.8605 15.292 16.944C14.783 17.0185 14.139 17.0505 13.432 16.8285C13.0035 16.6935 12.4535 16.5145 11.749 16.214C8.78755 14.951 6.85355 12.0065 6.70555 11.812C6.55805 11.6175 5.50006 10.2315 5.50006 8.797C5.50006 7.3625 6.26255 6.657 6.53355 6.365C6.80455 6.073 7.12405 6 7.32105 6C7.51805 6 7.71455 6.0025 7.88705 6.0105C8.06855 6.0195 8.31205 5.942 8.55155 6.511C8.79755 7.095 9.38804 8.5295 9.46104 8.676C9.53504 8.822 9.58404 8.9925 9.48604 9.187C9.38804 9.3815 9.33904 9.503 9.19104 9.6735C9.04305 9.844 8.88105 10.0535 8.74805 10.1845C8.60005 10.33 8.44655 10.4875 8.61855 10.7795C8.79055 11.0715 9.38304 12.026 10.261 12.799C11.3885 13.792 12.34 14.1 12.635 14.246C12.93 14.392 13.1025 14.3675 13.2745 14.173C13.4465 13.978 14.0125 13.3215 14.209 13.03C14.4055 12.7385 14.6025 12.7865 14.8735 12.884C15.1445 12.981 16.596 13.686 16.891 13.832C17.186 13.978 17.383 14.051 17.457 14.1725C17.531 14.2935 17.531 14.8775 17.285 15.558Z" fill="#181B3F"/>
</svg>
