<svg width="23" height="24" viewBox="0 0 23 24" fill="none" xmlns="http://www.w3.org/2000/svg">
<path id="Vector" d="M11.5 0.399414C5.15906 0.399414 7.42124e-05 5.55841 7.42124e-05 11.8994C7.42124e-05 13.8794 0.511572 15.8264 1.48157 17.5444L0.0185741 22.7644C-0.0294257 22.9359 0.0170742 23.1199 0.141074 23.2474C0.236573 23.3459 0.366573 23.3994 0.500073 23.3994C0.540072 23.3994 0.580572 23.3944 0.620072 23.3849L6.06805 22.0354C7.73155 22.9284 9.60504 23.3994 11.5 23.3994C17.841 23.3994 23 18.2404 23 11.8994C23 5.55841 17.841 0.399414 11.5 0.399414ZM17.285 15.9574C17.039 16.6384 15.859 17.2599 15.292 17.3434C14.783 17.4179 14.139 17.4499 13.432 17.2279C13.0035 17.0929 12.4535 16.9139 11.749 16.6134C8.78755 15.3504 6.85355 12.4059 6.70555 12.2114C6.55805 12.0169 5.50006 10.6309 5.50006 9.19641C5.50006 7.76191 6.26255 7.05641 6.53355 6.76441C6.80455 6.47241 7.12405 6.39941 7.32105 6.39941C7.51805 6.39941 7.71455 6.40191 7.88705 6.40991C8.06855 6.41891 8.31205 6.34141 8.55155 6.91041C8.79755 7.49441 9.38804 8.92891 9.46104 9.07541C9.53504 9.22141 9.58404 9.39191 9.48604 9.58641C9.38804 9.78091 9.33904 9.90241 9.19104 10.0729C9.04305 10.2434 8.88105 10.4529 8.74805 10.5839C8.60005 10.7294 8.44655 10.8869 8.61855 11.1789C8.79055 11.4709 9.38304 12.4254 10.261 13.1984C11.3885 14.1914 12.34 14.4994 12.635 14.6454C12.93 14.7914 13.1025 14.7669 13.2745 14.5724C13.4465 14.3774 14.0125 13.7209 14.209 13.4294C14.4055 13.1379 14.6025 13.1859 14.8735 13.2834C15.1445 13.3804 16.596 14.0854 16.891 14.2314C17.186 14.3774 17.383 14.4504 17.457 14.5719C17.531 14.6929 17.531 15.2769 17.285 15.9574Z" fill="white"/>
</svg>
