<svg width="41" height="41" viewBox="0 0 41 41" fill="none" xmlns="http://www.w3.org/2000/svg">
<g id="Social Media / Whatsapp">
<rect id="Logo Container" x="0.246857" width="40.4593" height="40.4593" rx="8.83759" fill="#00D95F"/>
<path id="Vector" d="M10.3618 29.5953L11.8132 24.1985C10.6426 22.0962 10.2708 19.643 10.7658 17.289C11.2607 14.9351 12.5894 12.8383 14.508 11.3834C16.4266 9.92849 18.8063 9.21313 21.2105 9.36856C23.6148 9.52398 25.8822 10.5398 27.5968 12.2295C29.3114 13.9193 30.3582 16.1696 30.5449 18.5677C30.7317 20.9657 30.046 23.3506 28.6137 25.2846C27.1813 27.2187 25.0984 28.5722 22.7471 29.0968C20.3959 29.6214 17.934 29.2819 15.8132 28.1406L10.3618 29.5953ZM16.0761 26.121L16.4132 26.3207C17.9493 27.2297 19.7435 27.6059 21.5161 27.3906C23.2887 27.1753 24.9402 26.3806 26.2132 25.1304C27.4862 23.8803 28.3092 22.2448 28.554 20.4789C28.7987 18.713 28.4515 16.9159 27.5664 15.3676C26.6813 13.8192 25.308 12.6067 23.6605 11.919C22.0131 11.2312 20.184 11.1068 18.4584 11.5652C16.7327 12.0236 15.2074 13.039 14.1202 14.4532C13.0329 15.8674 12.4448 17.6009 12.4475 19.3836C12.446 20.8618 12.8555 22.3114 13.6303 23.571L13.8418 23.919L13.0303 26.9311L16.0761 26.121Z" fill="white"/>
<path id="Vector_2" fill-rule="evenodd" clip-rule="evenodd" d="M24.2588 20.7698C24.0612 20.6106 23.8298 20.4986 23.5822 20.4423C23.3346 20.3859 23.0775 20.3867 22.8303 20.4446C22.4588 20.5986 22.2188 21.1805 21.9788 21.4715C21.9282 21.5412 21.8539 21.5901 21.7697 21.609C21.6855 21.6279 21.5973 21.6155 21.5217 21.5742C20.1619 21.0424 19.0221 20.0674 18.2874 18.8073C18.2247 18.7287 18.1951 18.6289 18.2047 18.5288C18.2143 18.4288 18.2624 18.3364 18.3388 18.2711C18.6065 18.0065 18.803 17.6788 18.9103 17.3184C18.9341 16.9207 18.8428 16.5247 18.6474 16.1774C18.4963 15.6905 18.2088 15.257 17.8188 14.928C17.6177 14.8377 17.3947 14.8074 17.1767 14.8408C16.9587 14.8742 16.755 14.9699 16.5902 15.1163C16.3042 15.3627 16.0772 15.6699 15.9259 16.0155C15.7746 16.361 15.7029 16.7361 15.716 17.113C15.7168 17.3246 15.7437 17.5354 15.796 17.7405C15.9287 18.2334 16.1327 18.7042 16.4017 19.1382C16.5957 19.4706 16.8075 19.7925 17.036 20.1023C17.7786 21.12 18.712 21.9842 19.7845 22.6467C20.3227 22.9833 20.898 23.2571 21.4988 23.4625C22.123 23.7449 22.8122 23.8534 23.4931 23.7762C23.8811 23.7176 24.2487 23.5647 24.5636 23.3309C24.8784 23.0971 25.1309 22.7897 25.2988 22.4356C25.3975 22.2217 25.4274 21.9826 25.3846 21.751C25.2817 21.2775 24.6474 20.998 24.2588 20.7698Z" fill="white"/>
</g>
</svg>
